<?xml version="1.0" encoding="utf-8"?>
<!-- Generator: Adobe Illustrator 22.0.1, SVG Export Plug-In . SVG Version: 6.00 Build 0)  -->
<svg version="1.1" id="Слой_1" xmlns="http://www.w3.org/2000/svg" xmlns:xlink="http://www.w3.org/1999/xlink" x="0px" y="0px"
	 viewBox="0 0 265.7 236" style="enable-background:new 0 0 265.7 236;" xml:space="preserve">
<style type="text/css">
	.st0{fill:none;stroke:#000000;stroke-width:15;stroke-miterlimit:10;}
</style>
<g>
	<g>
		<path d="M111.1,235l-82-47.8V63.1l83.3-31.7l125.2,27v129.2L111.1,235z M35.1,183.8l76.6,44.7l119.9-45V63.1L112.8,37.5L35.1,67.2
			V183.8z"/>
	</g>
	<g>
		<rect x="109.6" y="32.8" width="6" height="196.5"/>
	</g>
	<g>
		<polygon points="167,211.2 161,211.2 161,144.3 112.6,151.7 31.7,139.7 32.5,133.8 112.6,145.6 161,138.3 161,44.2 167,44.2 		"/>
	</g>
	<g>
		<rect x="204.5" y="53.5" width="6" height="140.8"/>
	</g>
	<g>
		<path d="M139,90l-0.3,0L9.1,82c-2-0.1-3.7-1.6-4.1-3.6c-0.4-2,0.6-3.9,2.4-4.8l0.2-0.1l104.7-42.2l146,32.5c1.7,0.4,2.8,2,2.7,3.7
			c-0.1,1.7-1.3,3.1-3,3.4L139,90z M16.4,76.4L138.8,84L244.9,67l-132-29.4L16.4,76.4z M9.5,76L9.5,76C9.5,76,9.5,76,9.5,76z"/>
	</g>
	<g>
		<polygon points="256.8,69.4 127.5,9.7 114.5,35.8 109.1,33.1 124.8,1.8 259.3,64 		"/>
	</g>
	<g>
		<rect x="55.7" y="53.6" width="6" height="87.1"/>
	</g>
	<g>
		<rect x="133.9" y="87" width="6" height="59"/>
	</g>
	<g>
		<rect x="89.4" y="83" width="6" height="62.6"/>
	</g>
	<g>
		<rect x="182.7" y="148.6" transform="matrix(0.1892 -0.9819 0.9819 0.1892 -17.0488 320.8036)" width="6" height="44.2"/>
	</g>
	<g>
		<polygon points="33.9,138.6 33.4,132.7 136.8,124.1 137,124.1 234.7,127.7 234.9,133.6 209,136.6 208.5,132.7 137,130.1 		"/>
	</g>
	<g>
		<rect x="113.8" y="157.4" transform="matrix(0.9841 -0.1775 0.1775 0.9841 -26.2619 27.1266)" width="49.4" height="6"/>
	</g>
	<g>
		<rect x="112" y="171.9" transform="matrix(0.9762 -0.2169 0.2169 0.9762 -34.6355 34.1658)" width="52.7" height="6"/>
	</g>
	<g>
		<rect x="111.7" y="188.2" transform="matrix(0.9657 -0.2595 0.2595 0.9657 -44.8747 42.4394)" width="53.2" height="6"/>
	</g>
	<g>
		<rect x="111.3" y="203.4" transform="matrix(0.9509 -0.3094 0.3094 0.9509 -57.1085 52.7422)" width="52.8" height="6"/>
	</g>
	<g>
		<rect x="208.4" y="144" transform="matrix(0.9787 -0.2052 0.2052 0.9787 -25.4649 48.4804)" width="25.2" height="6"/>
	</g>
	<g>
		<rect x="207.2" y="157" transform="matrix(0.9795 -0.2016 0.2016 0.9795 -27.7152 47.8471)" width="27.7" height="6"/>
	</g>
	<g>
		<rect x="207.1" y="171" transform="matrix(0.9718 -0.2358 0.2358 0.9718 -34.801 57.0204)" width="27.9" height="6"/>
	</g>
	<g>
		<rect x="55.7" y="119.3" width="6" height="81.7"/>
	</g>
	<g>
		<polygon points="110,167.7 58.8,156.5 32.9,149.7 34.4,143.9 60.3,150.7 111.2,161.8 		"/>
	</g>
	<g>
		<polygon points="109.8,184.8 57.8,171 31.3,163.2 32.9,157.5 59.5,165.3 111.4,179 		"/>
	</g>
	<g>
		<polygon points="111.6,202.2 57.6,183.4 31.1,173.5 33.1,167.9 59.7,177.7 113.6,196.6 		"/>
	</g>
	<g>
		<polygon points="111.4,218.3 57.4,193.9 32.4,181.8 35,176.4 59.9,188.5 113.8,212.8 		"/>
	</g>
	<g>
		<rect x="-1.9" y="37.6" transform="matrix(0.8539 -0.5204 0.5204 0.8539 -11.2883 40.9853)" width="138.6" height="6"/>
	</g>
	<g>
		<path class="st0" d="M111.8,56.7"/>
	</g>
</g>
</svg>
