<svg viewBox="-36 0 512 512" xmlns="http://www.w3.org/2000/svg"><path d="m280 176c5.519531 0 10-4.480469 10-10s-4.480469-10-10-10-10 4.480469-10 10 4.480469 10 10 10zm0 0"/><path d="m160 176c5.519531 0 10-4.480469 10-10s-4.480469-10-10-10-10 4.480469-10 10 4.480469 10 10 10zm0 0"/><path d="m0 312c0 22.054688 17.945312 40 40 40h23.53125l100.195312 62.652344-126.90625 78.855468c-3.792968 2.355469-5.5625 6.941407-4.335937 11.234376 1.226563 4.296874 5.148437 7.257812 9.617187 7.257812h75.796876c1.867187 0 3.695312-.519531 5.28125-1.507812l97.214843-60.40625 96.582031 60.390624c1.589844.996094 3.429688 1.523438 5.304688 1.523438h75.4375c4.460938 0 8.382812-2.953125 9.613281-7.242188 1.230469-4.289062-.527343-8.871093-4.3125-11.238281l-125.867187-78.703125 101.09375-62.816406h21.753906c22.097656 0 40-17.898438 40-40 0-18.605469-12.765625-34.28125-30-38.734375v-243.265625c0-16.574219-13.425781-30-30-30-16.542969 0-30 13.457031-30 30v20h-260v-20c0-8.011719-3.121094-15.542969-8.789062-21.210938-5.667969-5.667968-13.199219-8.789062-21.210938-8.789062-16.542969 0-30 13.457031-30 30v243.261719c-16.820312 4.3125-30 19.675781-30 38.738281zm115.046875 180h-37.90625l105.472656-65.539062 18.890625 11.8125zm210.101563 0-223.894532-140h37.71875l223.894532 140zm-148.457032-140h87.84375l-44.058594 27.378906zm81.574219 51.007812-18.902344-11.820312 63.070313-39.1875h37.917968zm111.734375-373.007812c0-5.515625 4.484375-10 10-10 5.523438 0 10 4.480469 10 10v242h-20zm-280 242v-56h260v56zm60-202v56c0 5.523438 4.476562 10 10 10s10-4.476562 10-10v-56h100v56c0 5.523438 4.476562 10 10 10s10-4.476562 10-10v-56h60v126h-260v-126zm-100-40c0-5.515625 4.484375-10 10-10 2.667969 0 5.179688 1.039062 7.066406 2.929688 1.894532 1.890624 2.933594 4.402343 2.933594 7.070312v242h-20zm-10 262h360c11.027344 0 20 8.972656 20 20 0 11.042969-8.953125 20-20 20h-360c-11.027344 0-20-8.972656-20-20 0-11.042969 8.953125-20 20-20zm0 0"/></svg>