<?xml version="1.0" encoding="iso-8859-1"?>
<!-- Generator: Adobe Illustrator 19.0.0, SVG Export Plug-In . SVG Version: 6.00 Build 0)  -->
<svg version="1.1" id="Capa_1" xmlns="http://www.w3.org/2000/svg" xmlns:xlink="http://www.w3.org/1999/xlink" x="0px" y="0px"
	 viewBox="0 0 512.001 512.001" style="enable-background:new 0 0 512.001 512.001;" xml:space="preserve">
<g>
	<g>
		<path d="M130.714,268.286c-1.88-1.89-4.4-2.93-7.07-2.93s-5.18,1.04-7.07,2.93c-1.89,1.891-2.93,4.4-2.93,7.07
			c0,2.68,1.04,5.19,2.93,7.08c1.89,1.88,4.4,2.92,7.07,2.92s5.18-1.04,7.07-2.92c1.89-1.89,2.93-4.4,2.93-7.08
			C133.644,272.686,132.604,270.176,130.714,268.286z"/>
	</g>
</g>
<g>
	<g>
		<path d="M462.538,292.144c-11.671-37.919-27.653-89.849-2.796-196.871c0.892-3.841-0.557-7.847-3.698-10.23
			c-3.143-2.384-7.392-2.696-10.849-0.802c-36.632,20.072-50.747,52.369-63.201,80.864c-12.579,28.78-21.709,47.111-43.55,52.35
			c20.459-65.593,4.483-89.096-12.362-113.884c-3.166-4.66-6.441-9.478-9.454-14.619c-28.513-48.638-10.155-70.141-8.63-71.792
			c3.375-3.061,4.117-7.898,1.989-11.937c-2.142-4.064-6.913-6.018-11.373-4.922c-1.264,0.311-31.291,7.807-60.491,25.25
			c-40.648,24.281-59.681,56.005-55.039,91.746c5.441,41.893-3.138,70.926-11.293,87.904c-2.134,4.441-4.352,8.316-6.488,11.637
			c-8.76-32.612-31.568-76.088-51.869-89.225c-3.076-1.99-6.994-2.14-10.211-0.389c-3.218,1.75-5.222,5.121-5.222,8.784
			c0,62.747-18.967,100.385-35.701,133.593c-11.966,23.746-22.299,44.252-22.299,68.403c0,28.844,5.443,51.503,16.641,69.273
			c10.412,16.523,25.607,28.516,46.411,36.66c-6.161,12.018-6.482,27.585,0.445,41.649C111.402,501.632,126.977,512,143.175,512
			c5.663,0,11.077-1.252,16.09-3.722l96.736-47.647l96.735,47.648c5.014,2.47,10.427,3.722,16.09,3.722h0.001
			c16.197,0,31.772-10.369,39.677-26.414c6.924-14.058,6.606-29.619,0.452-41.636c20.8-8.144,35.993-20.144,46.404-36.665
			c11.198-17.771,16.641-40.434,16.641-69.278C472.001,322.894,467.616,308.642,462.538,292.144z M150.428,490.337
			c-2.241,1.103-4.681,1.663-7.252,1.663c-8.507,0-17.242-6.13-21.736-15.253c-6.091-12.366-2.998-26.391,6.895-31.264
			c2.24-1.103,4.68-1.663,7.252-1.663c8.507,0,17.242,6.13,21.736,15.253C163.414,471.439,160.321,485.465,150.428,490.337z
			 M233.371,371.453l-56.578,27.868l-48.458-23.869c-9.893-4.873-12.986-18.898-6.895-31.264
			c4.494-9.123,13.229-15.253,21.736-15.253c2.572,0,5.012,0.56,7.252,1.663L233.371,371.453z M199.001,295.005
			c0-17.522,12.73-31.115,27.471-46.851c11.466-12.243,23.878-25.495,31.675-42.337c2.879,6.263,6.019,12.606,9.222,19.078
			c12.111,24.461,24.632,49.756,24.632,75.11c0,22.439-6.476,40.256-9.43,47.214l-26.57,13.087l-50.588-24.918
			C202.393,325.799,199.001,311.398,199.001,295.005z M180.247,475.649c0.665-8.304-0.898-17.121-4.983-25.413
			c-4.019-8.16-10.024-14.846-17.084-19.453l203.394-100.184c2.24-1.103,4.681-1.663,7.252-1.663c8.507,0,17.242,6.13,21.736,15.253
			c6.091,12.366,2.998,26.391-6.895,31.264L180.247,475.649z M336.738,450.236c-3.986,8.091-5.689,16.882-5.017,25.397
			l-53.089-26.15l56.578-27.867l18.581,9.188C346.745,435.409,340.752,442.088,336.738,450.236z M390.563,476.748
			c-4.495,9.124-13.23,15.252-21.736,15.252c-2.572,0-5.013-0.56-7.253-1.663c-4.528-2.23-7.807-6.521-9.232-12.082
			c-1.569-6.123-0.739-12.935,2.338-19.182c4.494-9.123,13.229-15.253,21.736-15.253c2.571,0,5.012,0.56,7.252,1.663
			C393.561,450.357,396.653,464.382,390.563,476.748z M400.98,425.588c-2.375,0.912-4.834,1.754-7.357,2.545
			c-0.37-0.199-0.737-0.403-1.116-0.59l-34.665-17.075l34.665-17.075c19.785-9.746,26.962-35.783,15.998-58.043
			c-7.904-16.046-23.479-26.414-39.678-26.414c-5.662,0-11.076,1.252-16.09,3.722l-45.068,22.199
			c2.391-9.588,4.333-21.482,4.333-34.852c0-30.033-14.188-58.696-26.707-83.983c-8.471-17.11-16.471-33.272-19.497-48.023
			c-1.031-5.027-5.698-8.458-10.806-7.939c-5.105,0.519-8.99,4.817-8.99,9.949c0,28.037-16.577,45.736-34.127,64.474
			c-16.162,17.254-32.874,35.097-32.874,60.522c0,10.5,1.198,20.264,2.865,28.785l-22.601-11.132
			c-5.014-2.47-10.427-3.722-16.09-3.722c-16.199,0-31.773,10.368-39.677,26.414c-10.964,22.259-3.787,48.297,15.999,58.043
			l34.665,17.075l-34.665,17.075c-0.373,0.184-0.733,0.384-1.097,0.58c-2.524-0.791-5.001-1.622-7.378-2.535
			c-35.286-13.548-51.021-40.561-51.021-87.584c0-19.396,8.896-37.051,20.16-59.402c14.759-29.288,32.677-64.841,36.912-118.532
			c14.757,21.009,29.866,55.669,31.734,75.989l-3.953,3.947c-3.9,3.899-3.9,10.239,0,14.139c1.89,1.89,4.4,2.93,7.08,2.93
			c2.67,0,5.18-1.04,7.07-2.93l6.773-6.774c5.288-4.545,48.56-44.726,37.141-132.651c-6.29-48.426,48.1-76.252,79.385-88.121
			c-3.417,15.896-2.021,39.898,17.071,72.467c3.351,5.715,6.815,10.813,10.166,15.745c16.427,24.17,29.4,43.262,5.054,110.804
			c-1.104,3.063-0.647,6.473,1.225,9.138c1.872,2.666,4.926,4.252,8.183,4.252c47.52,0,62.16-33.498,76.319-65.893
			c8.76-20.043,17.743-40.598,34.522-56.713c-18.011,95.244-2.781,144.71,8.58,181.626c4.793,15.572,8.578,27.871,8.578,39.978
			C452.001,385.027,436.266,412.04,400.98,425.588z"/>
	</g>
</g>
<g>
</g>
<g>
</g>
<g>
</g>
<g>
</g>
<g>
</g>
<g>
</g>
<g>
</g>
<g>
</g>
<g>
</g>
<g>
</g>
<g>
</g>
<g>
</g>
<g>
</g>
<g>
</g>
<g>
</g>
</svg>
