<?xml version="1.0" encoding="iso-8859-1"?>
<!-- Generator: Adobe Illustrator 19.0.0, SVG Export Plug-In . SVG Version: 6.00 Build 0)  -->
<svg version="1.1" id="Capa_1" xmlns="http://www.w3.org/2000/svg" xmlns:xlink="http://www.w3.org/1999/xlink" x="0px" y="0px"
	 viewBox="0 0 496 496" style="enable-background:new 0 0 496 496;" xml:space="preserve">
<g>
	<g>
		<path d="M496,384v-48h-56V144c13.232,0,24-10.768,24-24s-10.768-24-24-24H304V48h16V0H176v48h16v48H56c-13.232,0-24,10.768-24,24
			s10.768,24,24,24v192H0v48h24v64H0v48h496v-48h-24v-64H496z M192,16h112v16H192V16z M288,48v48h-80V48H288z M48,120
			c0-4.416,3.592-8,8-8h384c4.408,0,8,3.584,8,8s-3.592,8-8,8H56C51.592,128,48,124.416,48,120z M424,144v192h-16V144H424z M392,208
			v32h-53.64c-1.216-3.632-2.592-7.344-4.28-11.2l-7.2-16.104l-7.472,16.136c-0.048,0.104-4.136,8.536-20.072,15.28
			c1.976-19.816-7.728-26.704-19.608-32.72c-2.096-1.064-4.2-2.128-6.24-3.392H360v-16h-99.224c-2.016-5.784-3.248-13.448-3.248-24
			v-16.472l-12.944,10.176c-0.992,0.784-13.936,11.304-22.968,30.288H104v-48h288V144v48h-16v16H392z M256,272
			c-22.056,0-40,17.944-40,40c0,5.296,1.088,10.336,2.968,14.968c-10.52-5.448-19.496-13.088-25.576-22.376
			c-10.344-15.8-12.128-35.44-5.328-57.336c6.76,5.696,17.616,12.192,34.512,16.496l13.416,3.416l-3.744-13.328
			c-8.728-31.096,1.464-53.864,10.752-66.896c4.552,26.096,18.672,33.248,29.496,38.728c10.24,5.184,14.48,7.328,8.624,28.168
			l-3.744,13.328l13.416-3.416c16.336-4.16,26.752-10.4,33.28-16.016c6.624,21.704,4.8,41.168-5.472,56.856
			c-6.08,9.288-15.056,16.928-25.576,22.376C294.912,322.336,296,317.296,296,312C296,289.944,278.056,272,256,272z M280,312
			c0,13.232-10.768,24-24,24s-24-10.768-24-24s10.768-24,24-24S280,298.768,280,312z M169.592,288H104v-32h65.464
			C167.28,268.208,167.704,278.848,169.592,288z M104,240v-32h111.776c-2.704,10.416-3.848,22.448-1.912,36.08
			c-16.536-6.896-21.432-15.6-21.432-15.6l-7.608-15.496L177.92,228.8c-1.688,3.856-3.056,7.568-4.28,11.2H104z M332,313.352
			c1.816-2.768,3.568-5.904,5.16-9.352H392v32h-82.856C318.336,329.872,326.2,322.208,332,313.352z M342.408,288
			c1.888-9.152,2.312-19.792,0.136-32H392v32H342.408z M88,144v192H72V144H88z M480,464v16H16v-16H480z M40,448v-64h16v64H40z
			 M193.472,448H72v-64h121.472c-0.896,2.512-1.472,5.184-1.472,8v48C192,442.816,192.576,445.488,193.472,448z M208,440v-48
			c0-4.416,3.592-8,8-8s8,3.584,8,8v48c0,4.416-3.592,8-8,8S208,444.416,208,440z M238.528,384h34.952
			c-0.904,2.512-1.48,5.184-1.48,8v16h-32v-16C240,389.184,239.424,386.512,238.528,384z M240,440v-16h32v16
			c0,2.816,0.576,5.488,1.472,8H238.52C239.424,445.488,240,442.816,240,440z M288,440v-48c0-4.416,3.592-8,8-8c4.408,0,8,3.584,8,8
			v48c0,4.416-3.592,8-8,8C291.592,448,288,444.416,288,440z M318.528,384H424v64H318.528c0.896-2.512,1.472-5.184,1.472-8v-48
			C320,389.184,319.424,386.512,318.528,384z M440,448v-64h16v64H440z M16,368v-16h104v-16h-16v-32h70.84
			c1.592,3.448,3.352,6.576,5.16,9.352c5.8,8.856,13.664,16.52,22.856,22.648H136v16h344v16H16z"/>
	</g>
</g>
<g>
</g>
<g>
</g>
<g>
</g>
<g>
</g>
<g>
</g>
<g>
</g>
<g>
</g>
<g>
</g>
<g>
</g>
<g>
</g>
<g>
</g>
<g>
</g>
<g>
</g>
<g>
</g>
<g>
</g>
</svg>
