<?xml version="1.0" encoding="iso-8859-1"?>
<!-- Generator: Adobe Illustrator 19.0.0, SVG Export Plug-In . SVG Version: 6.00 Build 0)  -->
<svg version="1.1" id="Capa_1" xmlns="http://www.w3.org/2000/svg" xmlns:xlink="http://www.w3.org/1999/xlink" x="0px" y="0px"
	 viewBox="0 0 512 512" style="enable-background:new 0 0 512 512;" xml:space="preserve">
<g>
	<g>
		<path d="M284.564,308.596c-3.957-3.855-10.288-3.772-14.141,0.184l-0.019,0.019c-3.854,3.955-3.763,10.277,0.193,14.131
			c1.942,1.892,4.458,2.833,6.973,2.833c2.608,0,5.215-1.012,7.178-3.026C288.602,318.781,288.52,312.45,284.564,308.596z"/>
	</g>
</g>
<g>
	<g>
		<path d="M261.418,285.898l-61.994-60.791c-3.889-3.813-10.114-3.813-14.003,0l-85.163,83.51
			c-3.944,3.867-4.006,10.199-0.139,14.142c1.959,1.998,4.549,2.999,7.141,2.999c2.527,0,5.055-0.951,7.001-2.859l78.161-76.645
			l54.993,53.925c3.943,3.866,10.274,3.804,14.142-0.139C265.423,296.096,265.361,289.765,261.418,285.898z"/>
	</g>
</g>
<g>
	<g>
		<path d="M60.71,0C27.234,0,0,27.234,0,60.71c0,33.476,27.234,60.71,60.71,60.71c33.476,0,60.71-27.234,60.71-60.71
			C121.42,27.234,94.186,0,60.71,0z M60.71,101.42C38.262,101.42,20,83.158,20,60.71S38.262,20,60.71,20s40.71,18.262,40.71,40.71
			S83.158,101.42,60.71,101.42z"/>
	</g>
</g>
<g>
	<g>
		<path d="M165.561,334.505H99.977c-5.523,0-10,4.477-10,10v49c0,5.523,4.477,10,10,10h65.585c5.522,0,10-4.477,9.999-10v-49
			C175.561,338.982,171.084,334.505,165.561,334.505z M155.561,383.505h-45.584v-29h45.584V383.505z"/>
	</g>
</g>
<g>
	<g>
		<path d="M284.868,334.505h-65.585c-5.523,0-10,4.477-10,10v49c0,5.523,4.477,10,10,10h65.585c5.523,0,10-4.477,10-10v-49
			C294.868,338.982,290.391,334.505,284.868,334.505z M274.868,383.505h-45.585v-29h45.585V383.505z"/>
	</g>
</g>
<g>
	<g>
		<path d="M487.007,377.869l-27.284-17.308c-3.273-2.076-7.452-2.073-10.725,0.007l-11.84,7.532v-41.521
			C479.245,321.615,512,285.722,512,242.324c0-22.631-9.035-44.233-24.967-60.108c0.261-2.287,0.393-4.593,0.393-6.9
			c0-33.231-27.035-60.266-60.266-60.266c-33.231,0-60.266,27.035-60.266,60.266c0,2.307,0.131,4.613,0.393,6.9
			c-15.932,15.875-24.967,37.476-24.967,60.108c0,5.328,0.494,10.542,1.438,15.6l-5.525-5.36v-86.905c0-5.523-4.477-10-10-10H281.6
			c-5.523,0-10,4.477-10,10v22.265l-72.213-70.053c-3.879-3.763-10.047-3.763-13.926,0L3.181,294.697
			c-1.968,1.909-3.066,4.542-3.037,7.284s1.183,5.352,3.191,7.218l32.521,30.229c3.914,3.638,9.996,3.556,13.81-0.185l7.229-7.088
			v35.971l-11.926-7.566c-3.271-2.074-7.443-2.074-10.714,0L6.972,377.869c-2.891,1.834-4.643,5.021-4.643,8.444v115.543
			c0,5.523,4.477,10,10,10L481.375,512c5.523,0,10.275-4.621,10.275-10.144V386.313C491.65,382.889,489.898,379.703,487.007,377.869
			z M56.895,491.857H22.329V391.812l17.283-10.964l17.283,10.964V491.857z M291.598,175.659h26.633v57.504l-26.633-25.837V175.659z
			 M59.876,301.223L42.48,318.279L24.665,301.72l167.757-162.739L360.18,301.72l-17.815,16.559L199.424,178.112
			c-3.889-3.813-10.114-3.813-14.003,0L59.894,301.204C59.888,301.21,59.882,301.216,59.876,301.223z M327.95,391.812l17.284-10.964
			l17.283,10.964v52.782c-1.477,0.518-2.913,1.148-4.292,1.883c-5.673-6.278-13.865-10.13-22.685-10.13
			c-2.585,0-5.133,0.336-7.59,0.973V391.812z M215.392,491.856h-45.938v-41.248c0-12.665,10.304-22.969,22.969-22.969
			c12.665,0,22.969,10.304,22.969,22.969V491.856z M307.95,491.856h-72.558v-41.248c0-23.693-19.276-42.969-42.969-42.969
			s-42.969,19.276-42.969,42.969v41.248H76.895V312.543l115.527-113.286L307.95,312.543V491.856z M417.16,492h-89.21v-32.428
			c1.962-2.05,4.668-3.225,7.59-3.225c4.675,0,8.837,3.132,10.122,7.617c1.071,3.739,4.213,6.519,8.056,7.125
			c0.122,0.019,0.242,0.04,0.362,0.063c3.812,0.738,7.7-0.797,9.983-3.934c1.996-2.742,5.073-4.322,8.452-4.342h0.002
			c0.003,0,0.007,0,0.01,0c0.018,0,0.035,0,0.053,0c2.221,0,4.342,0.682,6.133,1.972c3.62,2.606,8.529,2.501,12.033-0.261
			c6.841-5.391,15.073-8.24,23.807-8.24c0.876,0,1.745,0.03,2.607,0.088V492z M382.517,444.527v-52.716l17.291-10.969l17.352,10.977
			v44.584c-0.864-0.038-1.733-0.057-2.607-0.057c-11.008,0-21.497,2.983-30.691,8.68
			C383.417,444.849,382.969,444.683,382.517,444.527z M417.16,368.155l-12.013-7.6c-3.268-2.069-7.437-2.065-10.703,0.006
			l-21.926,13.91l-21.926-13.91c-3.27-2.074-7.444-2.074-10.714,0l-11.927,7.566v-35.972l7.228,7.089
			c1.942,1.904,4.471,2.86,7.002,2.86c2.442,0,4.886-0.89,6.808-2.675l29.64-27.55c11.18,7.824,24.324,13.024,38.531,14.7V368.155z
			 M427.16,181.499c-5.523,0-10,4.477-10,10v53.96l-14.711-14.711c-3.905-3.904-10.237-3.904-14.143,0
			c-3.905,3.905-3.905,10.237,0,14.143l26.9,26.9c0.6,0.6,1.257,1.107,1.954,1.523v33.083c-31.022-4.823-54.84-31.717-54.84-64.071
			c-0.001-18.749,8.112-36.572,22.258-48.902c2.74-2.389,3.969-6.076,3.208-9.631c-0.592-2.767-0.892-5.619-0.892-8.478
			c0-22.203,18.063-40.266,40.266-40.266s40.266,18.063,40.266,40.266c0,2.86-0.3,5.713-0.892,8.478
			c-0.761,3.555,0.467,7.242,3.208,9.631c14.146,12.331,22.259,30.154,22.259,48.9c0,32.353-23.818,59.248-54.841,64.071v-33.083
			c0.697-0.416,1.355-0.923,1.955-1.523l26.9-26.9c3.905-3.905,3.905-10.237,0-14.143c-3.905-3.904-10.237-3.904-14.143,0
			l-14.712,14.712v-13.395c0.211-0.179,0.417-0.368,0.617-0.567l19.534-19.533c3.905-3.905,3.906-10.237,0-14.142
			c-3.906-3.906-10.237-3.905-14.142,0l-6.009,6.009v-12.331C437.16,185.976,432.683,181.499,427.16,181.499z M437.159,492v-28.3
			c8.905,6.481,14.937,16.682,15.791,28.3H437.159z M471.65,482.079c-4.163-18.627-17.234-33.931-34.491-41.189v-49.088
			l17.215-10.95l17.276,10.959V482.079z"/>
	</g>
</g>
<g>
</g>
<g>
</g>
<g>
</g>
<g>
</g>
<g>
</g>
<g>
</g>
<g>
</g>
<g>
</g>
<g>
</g>
<g>
</g>
<g>
</g>
<g>
</g>
<g>
</g>
<g>
</g>
<g>
</g>
</svg>
