<?xml version="1.0" encoding="utf-8"?>
<!-- Generator: Adobe Illustrator 22.0.1, SVG Export Plug-In . SVG Version: 6.00 Build 0)  -->
<svg version="1.1" id="Слой_1" xmlns="http://www.w3.org/2000/svg" xmlns:xlink="http://www.w3.org/1999/xlink" x="0px" y="0px"
	 viewBox="0 0 316.7 236" style="enable-background:new 0 0 316.7 236;" xml:space="preserve">
<style type="text/css">
	.st0{fill:none;stroke:#000000;stroke-width:12;stroke-miterlimit:10;}
	.st1{fill:none;stroke:#000000;stroke-width:12;stroke-linecap:round;stroke-linejoin:round;stroke-miterlimit:10;}
</style>
<g>
	<polygon class="st0" points="91.9,146.9 43.6,125.9 33.4,115.1 10.5,101.2 26.3,86.9 34,72.1 66.8,62.2 83.5,44.2 91.9,44.2 
		111.3,26.9 174.8,8 203.5,6.5 219.6,13.3 238.5,6.5 246.5,9.3 263.8,7.7 289.8,43.6 306.2,52.6 310.6,82.3 299.7,122.2 268.2,159 
		229.8,159 198.3,151 158.7,147.6 126.5,136.7 	"/>
	<polyline class="st0" points="67.1,62.2 101.4,75.2 138.6,44.5 177.2,44.5 203.5,6.5 	"/>
	<polyline class="st0" points="32.3,114.4 74.8,101.8 101.4,75.2 149.7,86.9 165.2,109.2 126.5,136.7 166.4,109.8 223.3,116.3 
		246.5,131.5 249.8,159 	"/>
	<line class="st0" x1="248.1" y1="132.1" x2="298.8" y2="123.2"/>
	<polyline class="st0" points="308.7,85.4 220.5,34.3 176,45.5 	"/>
	<line class="st0" x1="222.1" y1="34.3" x2="263.8" y2="7.7"/>
	<line class="st0" x1="165.2" y1="109.2" x2="175.3" y2="44.5"/>
	<polyline class="st1" points="222.4,114.8 270.4,64.1 247.9,131.8 	"/>
	<polygon class="st0" points="141,203 171,178 187.1,180.4 212,184 219,224 167,229 	"/>
	<polyline class="st0" points="191,183 180,201 153.8,215.8 	"/>
	<polygon class="st0" points="262,215 266,196 301,178 307,206 	"/>
</g>
</svg>
