<?xml version="1.0" encoding="utf-8"?>
<!-- Generator: Adobe Illustrator 22.0.1, SVG Export Plug-In . SVG Version: 6.00 Build 0)  -->
<svg version="1.1" id="Слой_1" xmlns="http://www.w3.org/2000/svg" xmlns:xlink="http://www.w3.org/1999/xlink" x="0px" y="0px"
	 viewBox="0 0 226.3 236" style="enable-background:new 0 0 226.3 236;" xml:space="preserve">
<g>
	<g>
		<path d="M136.8,229H57.9c-2.1,0-3.8-1.4-4.3-3.4c-0.5-2,0.5-4.1,2.3-5c8.6-4.3,22.9-16.6,22-51.7l-0.1-3.1h39.4l0,3
			c0,0.4,0.6,38.7,21.9,52.3c1.6,1,2.3,3,1.8,4.8C140.4,227.8,138.7,229,136.8,229z M58.7,226.1C58.7,226.1,58.7,226.1,58.7,226.1
			L58.7,226.1C58.7,226.1,58.7,226.1,58.7,226.1z M63.9,222.9h67.4c-16.5-14.5-19.5-41.8-20.1-51H84.1
			C84.1,201.9,73.2,216.2,63.9,222.9z"/>
	</g>
	<g>
		<path d="M94.8,171.7c-12.7,0-28-10.2-31.6-12.8c-2.3-0.2-8.4-1-14.9-4.4c-7.5-4-17.1-12.3-20-29.6c-1.6-9.8,1.5-30.8,2.2-35.4
			c-1.5-3.8-6.9-19.3-1.6-34.7C33.9,40.7,44.5,34,48.2,32.1c0.9-2.6,3.5-8.7,9-14.4c6.5-6.9,18.5-14.6,38.7-12.3
			C111.2,7.1,123,17,126.5,20.3c4.3-0.2,16.3,0.6,25.4,14.2c5.3,7.9,2.9,19.5,1.8,23.7c3.2,4.4,13.3,19.6,13.3,31.1
			c0,18.2-7,27.5-10.1,30.7c0.6,3.9,1.3,13.4-4.1,20.9c-13.8,19.1-34.1,30.1-57.1,30.9C95.4,171.7,95.1,171.7,94.8,171.7z
			 M88.9,11.1c-11.3,0-20.4,3.6-27.3,10.8c-6,6.3-7.9,13.1-7.9,13.1l-0.4,1.4l-1.4,0.6c-0.1,0-12.2,5.4-17.1,19.8
			c-5.2,15.1,1.7,31,1.8,31.1l0.4,0.8l-0.1,0.9c0,0.2-4,24.4-2.3,34.2c4.7,28,28.9,28.9,29.9,28.9l1,0l0.8,0.6
			c0.2,0.1,16.6,12.1,28.7,12.1c0.2,0,0.4,0,0.6,0c21.1-0.7,39.7-10.8,52.4-28.3c5.2-7.2,2.8-17.6,2.8-17.7l-0.4-1.9l1.6-1.2
			c0.4-0.3,9.1-7.6,9.1-27.2c0-11.4-12.9-28.5-13-28.7l-1-1.3l0.5-1.5c0-0.1,4.1-12.8-0.6-19.9c-8.8-13.1-20.4-11.4-20.9-11.4
			l-1.6,0.3l-1.1-1.1c-0.1-0.1-12.2-12.4-28-14.1C93,11.2,90.9,11.1,88.9,11.1z"/>
	</g>
	<g>
		<polygon points="184.8,229 137.2,229 137.2,222.9 178.7,222.9 178.7,185.8 134.1,185.8 134.1,217.1 128,217.1 128,179.7 
			184.8,179.7 		"/>
	</g>
	<g>
		<polygon points="183.8,222 179.7,217.4 214.9,186.3 212.3,183.8 183.4,202.4 180.1,197.3 213.2,176 223.8,186.6 		"/>
	</g>
	<g>
		<polygon points="142.5,181.8 136.4,181.8 136.4,169.3 174,169.3 174,180.8 167.9,180.8 167.9,175.4 142.5,175.4 		"/>
	</g>
	<g>
		<rect x="120.3" y="185.1" transform="matrix(0.2365 -0.9716 0.9716 0.2365 -91.9484 266.0433)" width="6.1" height="12.9"/>
	</g>
	<g>
		<polygon points="80.7,225.8 75.2,223.2 82.8,207.1 76.5,199.2 81.2,195.4 90,206.3 		"/>
	</g>
	<g>
		<polygon points="106.3,225.7 100.2,225.3 102.1,197.5 95.6,185.1 104.3,168.6 109.7,171.5 102.5,185.1 108.3,196.2 		"/>
	</g>
	<g>
		<rect x="88" y="173.2" transform="matrix(0.2781 -0.9606 0.9606 0.2781 -109.5437 219.2261)" width="6.1" height="18.6"/>
	</g>
	<g>
		<path d="M6.5,168.9l-1.4-3.3c-2.8-6.5-4.9-20.8,7.3-28.2l2.9-1.8l1.4,3.1c3,6.4,5.3,20.5-7.3,28.3L6.5,168.9z M12.5,145.1
			c-4,4.4-3.8,10.2-3,14.1C13.7,154.6,13.4,148.9,12.5,145.1z"/>
	</g>
	<g>
		<path d="M200.4,126.9l-3.5-0.4c-7.1-0.8-20.5-6.2-20.8-20.4l-0.1-3.4l3.4,0.3c7,0.6,20.4,5.6,20.9,20.4L200.4,126.9z M182.8,109.8
			c1.8,5.6,7,8.3,10.7,9.6c-1.1-3.5-3.4-6.1-7-8C185.2,110.7,183.9,110.2,182.8,109.8z"/>
	</g>
	<g>
		<path d="M180.7,58.1c-3.5,0-7.1-1-10.8-3.4l-2.8-1.9l2.2-2.6c4.5-5.4,16.4-13.4,28.8-5.2l3,2l-2.4,2.6
			C195.3,53.2,188.5,58.1,180.7,58.1z M176.9,51.4c3.3,1.1,6.8,0.7,10.5-1.1c1.3-0.6,2.5-1.4,3.5-2.1c-3.4-1.1-7-0.8-10.6,1
			C179,49.9,177.9,50.7,176.9,51.4z"/>
	</g>
	<g>
		<rect x="132.4" y="205" width="48.9" height="6.1"/>
	</g>
	<g>
		<path d="M69.5,113.3c-6.1-1.9-10.1-5.2-11.7-9.9c-2.9-7.9,2.3-16.4,2.6-16.8l5.2,3.3l-2.6-1.6l2.6,1.6c0,0.1-3.9,6.4-2,11.4
			c1,2.7,3.7,4.8,7.8,6.1L69.5,113.3z"/>
	</g>
	<g>
		<path d="M116.4,75.9c-4.2,0-7.6-1-7.9-1.1l1.8-5.8c2.3,0.7,9.1,1.9,12.7-0.9c2-1.5,2.8-4.3,2.6-8.2l6.1-0.3c0.3,6-1.4,10.5-5,13.3
			C123.7,75.2,119.8,75.9,116.4,75.9z"/>
	</g>
	<g>
		<path d="M101.2,147.1c-1.6,0-3-0.2-4.2-0.5c-4.8-1.2-7.8-4.1-8.1-4.4l4.3-4.3c0.8,0.8,8.6,7.8,18.2-1.9l4.3,4.3
			C110.5,145.6,105.4,147.1,101.2,147.1z"/>
	</g>
	<g>
		<path d="M76.5,40.7c-0.3-0.2-7.9-4.2-9.3-12.6c-1.1-6.5,1.8-13.5,8.5-20.8l4.5,4.2c-5.4,5.8-7.8,11.1-7,15.6
			c0.9,5.4,6.1,8.2,6.2,8.3L76.5,40.7z"/>
	</g>
	<g>
		<path d="M57.6,157.8c-0.2,0-0.3,0-0.3,0l0.2-6.1c0.1,0,6.5,0.1,9.9-3.8c2.1-2.4,2.7-6,1.9-10.7l6-1.1c1.2,6.6,0,12-3.3,15.8
			C67.1,157.5,59.3,157.8,57.6,157.8z"/>
	</g>
	<g>
		<path d="M148.6,121c-3.4,0-7.6-0.9-12.1-3.8l3.3-5.2c8.4,5.4,14.6,1.5,14.9,1.3l3.4,5.1C157.7,118.6,154.1,121,148.6,121z"/>
	</g>
</g>
</svg>
