<?xml version="1.0" encoding="iso-8859-1"?>
<!-- Generator: Adobe Illustrator 19.0.0, SVG Export Plug-In . SVG Version: 6.00 Build 0)  -->
<svg version="1.1" id="Layer_1" xmlns="http://www.w3.org/2000/svg" xmlns:xlink="http://www.w3.org/1999/xlink" x="0px" y="0px"
	 viewBox="0 0 512.001 512.001" style="enable-background:new 0 0 512.001 512.001;" xml:space="preserve">
<g>
	<g>
		<path d="M498.147,180.933L262.904,2.323c-4.08-3.097-9.726-3.097-13.806,0L13.854,180.933c-5.021,3.813-6.001,10.974-2.19,15.996
			c3.813,5.02,10.972,6.002,15.996,2.19l7.364-5.591v307.058c0,6.304,5.112,11.416,11.416,11.416h70.958h40.711h98.176h97.891
			h40.426h70.958c6.304,0,11.416-5.112,11.416-11.416V193.526l7.364,5.591c2.064,1.566,4.489,2.324,6.894,2.324
			c3.449-0.001,6.855-1.556,9.102-4.514C504.149,191.907,503.168,184.745,498.147,180.933z M256.001,25.749l127.609,96.888H192.634
			c-6.304,0-11.416,5.112-11.416,11.416c0,6.304,5.112,11.416,11.416,11.416h221.048l28.387,21.553H69.934L256.001,25.749z
			 M244.871,489.168h-75.344v-70.969h75.344V489.168z M244.871,395.368h-75.344v-70.969h75.344V395.368z M342.761,489.168h-75.059
			v-70.969h75.059V489.168z M383.187,489.168h-17.594v-82.384c0-6.304-5.112-11.416-11.416-11.416h-86.475v-82.384
			c0-6.304-5.112-11.416-11.416-11.416h-98.176c-6.304,0-11.416,5.112-11.416,11.416v93.8v82.384h-17.879v-204.99h254.372V489.168z
			 M406.018,489.168V272.762c0-6.304-5.112-11.416-11.416-11.416H117.4c-6.304,0-11.416,5.112-11.416,11.416v216.406H57.856V189.854
			h396.289v299.314H406.018z"/>
	</g>
</g>
<g>
	<g>
		<path d="M166.158,131.818c-0.147-0.729-0.365-1.438-0.651-2.135c-0.285-0.685-0.639-1.347-1.05-1.963
			c-0.422-0.628-0.902-1.211-1.427-1.736c-0.525-0.525-1.107-1.005-1.735-1.427c-0.616-0.41-1.279-0.765-1.965-1.05
			c-0.695-0.285-1.414-0.501-2.134-0.65c-1.473-0.298-2.991-0.298-4.464,0c-0.732,0.148-1.451,0.364-2.135,0.65
			c-0.696,0.285-1.358,0.64-1.975,1.05c-0.628,0.422-1.21,0.902-1.735,1.427c-0.525,0.525-1.005,1.109-1.416,1.736
			c-0.411,0.616-0.765,1.279-1.05,1.963c-0.285,0.696-0.502,1.404-0.651,2.135c-0.148,0.742-0.227,1.484-0.227,2.237
			c0,0.742,0.079,1.497,0.227,2.226c0.148,0.729,0.365,1.45,0.651,2.135c0.285,0.695,0.639,1.357,1.05,1.974
			c0.411,0.629,0.89,1.211,1.416,1.736c0.525,0.525,1.107,1.005,1.735,1.416c0.616,0.41,1.279,0.765,1.975,1.05
			c0.685,0.285,1.403,0.501,2.135,0.65c0.731,0.148,1.484,0.228,2.226,0.228c0.741,0,1.495-0.08,2.237-0.228
			c0.719-0.148,1.438-0.364,2.134-0.65c0.686-0.285,1.348-0.64,1.965-1.05c0.628-0.411,1.21-0.89,1.735-1.416
			s1.005-1.107,1.427-1.736c0.411-0.616,0.765-1.279,1.05-1.974c0.285-0.686,0.502-1.404,0.651-2.135
			c0.148-0.731,0.217-1.484,0.217-2.226C166.375,133.302,166.305,132.56,166.158,131.818z"/>
	</g>
</g>
<g>
</g>
<g>
</g>
<g>
</g>
<g>
</g>
<g>
</g>
<g>
</g>
<g>
</g>
<g>
</g>
<g>
</g>
<g>
</g>
<g>
</g>
<g>
</g>
<g>
</g>
<g>
</g>
<g>
</g>
</svg>
