<svg viewBox="0 -106 512 512" xmlns="http://www.w3.org/2000/svg"><path d="m512 170.242188-33.921875-110.242188h-116.078125v-60h-362v270h62.578125c6.195313 17.457031 22.867187 30 42.421875 30 11.515625 0 22.03125-4.355469 30-11.496094 7.96875 7.144532 18.484375 11.496094 30 11.496094 19.554688 0 36.226562-12.542969 42.421875-30h172.15625c6.195313 17.457031 22.867187 30 42.421875 30s36.226562-12.542969 42.421875-30h47.578125zm-37.617188-20.242188h-52.382812v-60h33.921875zm-142.382812-120v120h-302v-120zm-227 240c-8.269531 0-15-6.730469-15-15s6.730469-15 15-15 15 6.730469 15 15-6.730469 15-15 15zm60 0c-8.269531 0-15-6.730469-15-15s6.730469-15 15-15 15 6.730469 15 15-6.730469 15-15 15zm42.421875-30c-6.195313-17.457031-22.867187-30-42.421875-30-11.515625 0-22.03125 4.355469-30 11.496094-7.96875-7.140625-18.484375-11.496094-30-11.496094-19.554688 0-36.226562 12.542969-42.421875 30h-32.578125v-60h302v60zm214.578125 30c-8.269531 0-15-6.730469-15-15s6.730469-15 15-15 15 6.730469 15 15-6.730469 15-15 15zm42.421875-30c-6.195313-17.457031-22.867187-30-42.421875-30s-36.226562 12.542969-42.421875 30h-17.578125v-150h30v90h90v60zm0 0"/></svg>