<?xml version="1.0" encoding="utf-8"?>
<!-- Generator: Adobe Illustrator 22.0.1, SVG Export Plug-In . SVG Version: 6.00 Build 0)  -->
<svg version="1.1" id="Слой_1" xmlns="http://www.w3.org/2000/svg" xmlns:xlink="http://www.w3.org/1999/xlink" x="0px" y="0px"
	 viewBox="0 0 316.7 236" style="enable-background:new 0 0 316.7 236;" xml:space="preserve">
<style type="text/css">
	.st0{fill:none;stroke:#000000;stroke-width:12;stroke-miterlimit:10;}
</style>
<g>
	<g>
		<path class="st0" d="M65.6,179.3"/>
	</g>
	<g>
		<path d="M69.9,188.1c-11.3,0-23-5.4-33.5-15.5c-12.4-12-22-29.3-26.9-48.9c-6.3-25.3-3.9-50.5,6.6-67.4
			c6.1-9.8,14.5-16.1,24.3-18.3c13.5-3,28.1,2.2,41.1,14.7c12.4,12,22,29.3,26.9,48.9l0,0c6.3,25.3,3.9,50.5-6.6,67.4
			c-6.1,9.8-14.5,16.1-24.3,18.3C75,187.8,72.4,188.1,69.9,188.1z M47.9,46.2c-1.9,0-3.7,0.2-5.6,0.6c-7.4,1.6-13.8,6.5-18.5,14.2
			c-9.2,14.8-11.2,37.4-5.5,60.4c4.5,17.9,13.1,33.8,24.4,44.6c10.7,10.3,22.4,14.7,32.8,12.4c7.4-1.6,13.8-6.5,18.5-14.2
			c9.2-14.8,11.2-37.4,5.5-60.4v0C95,85.8,86.4,70,75.1,59.2C66.3,50.7,56.8,46.2,47.9,46.2z"/>
	</g>
	<g>
		<path d="M78.1,187.1l-3.4-8.4l73.7-29.8c13.2-7.5,43.4-24.5,44.7-25.2c1.2-0.6,9.3-3.3,15-5.1l8.6-12.8l18.4-10.5
			c2.6-2.2,23.1-21.1,14.8-55c-3.5-14.3-12.9-23.3-28-26.8c-11.8-2.8-22.9-1-23-1l-34.3,6c-5.5,1.1-51.4,10.2-57.8,10.8
			c-5.9,0.6-42.1,7.1-54.5,11.2c-11.8,3.9-22.6,12.8-22.7,12.9l-5.8-7c0.5-0.4,12.3-10.2,25.7-14.6c13.2-4.3,50.2-11,56.5-11.6
			c5-0.5,42.8-7.9,56.9-10.7l0.1,0l34.4-6c0.5-0.1,12.7-2.1,26.2,1c18.6,4.2,30.7,15.8,35,33.5c10.1,41.2-17,63.5-18.1,64.5
			l-0.3,0.2l-17.2,9.8l-9.2,13.6l-1.5,0.5c-6.7,2.2-14.2,4.7-15.4,5.2c-2.2,1.2-27.6,15.5-44.3,25l-0.3,0.1l-0.3,0.1L78.1,187.1z"/>
	</g>
	<g>
		<polygon points="103.6,90 97.7,83.1 125.9,59.2 160.4,61 200.5,43.4 225.1,51 248.9,28.9 255,35.5 227.4,61.1 201,53.1 
			162.1,70.2 129,68.5 		"/>
	</g>
	<g>
		<polygon points="83.7,63.7 80.6,55.1 122.8,40 144.7,25.2 168.5,34.3 193.8,20.1 213.1,25.5 239,13.5 242.8,21.7 213.9,35.1 
			195,29.8 169.2,44.3 145.9,35.4 127,48.2 		"/>
	</g>
	<g>
		<polygon points="104.2,160.5 99.7,152.7 155.4,120.2 172.8,113.7 178,94.6 248.4,82.1 250,91 185.2,102.5 180.3,120.5 
			159.4,128.4 		"/>
	</g>
	<g>
		<polygon points="107.8,116.7 104,108.5 151.2,86.6 151.4,86.5 200.6,68.9 254.1,67.6 254.3,76.7 202.2,77.9 154.7,95 		"/>
	</g>
	<g>
		<rect x="150.2" y="84.6" transform="matrix(0.3331 -0.9429 0.9429 0.3331 1.3563 217.9589)" width="9.1" height="46.9"/>
	</g>
	<g>
		<rect x="91" y="33.9" transform="matrix(0.2218 -0.9751 0.9751 0.2218 44.3393 132.5042)" width="28.3" height="9.1"/>
	</g>
	<g>
		<rect x="229.1" y="53.2" transform="matrix(0.7454 -0.6666 0.6666 0.7454 16.6281 172.0647)" width="9.1" height="22"/>
	</g>
	<g>
		<polygon points="180,82 169.1,63.6 120.6,50.9 122.8,42.1 175,55.7 187.8,77.3 		"/>
	</g>
	<g>
		<path d="M160.1,233c-7.4,0-15.8-1.5-24-6l-3.5-1.9l21.1-55.9l37,55.6l-4.5,2.3C185.6,227.4,174.5,233,160.1,233z M144,220.8
			c13.1,5.5,26.4,2.5,33.3,0.2l-21.3-32L144,220.8z"/>
	</g>
	<g>
		<polygon points="186.3,226.4 182.1,218.4 297.2,158.1 271.7,132.1 156.6,179.4 153.1,171.1 273.9,121.4 312.2,160.5 		"/>
	</g>
	<g>
		<rect x="172.8" y="194" transform="matrix(0.8734 -0.4871 0.4871 0.8734 -72.3964 118.5692)" width="38" height="9.1"/>
	</g>
	<g>
		<rect x="235" y="142.2" transform="matrix(0.9139 -0.406 0.406 0.9139 -37.1826 118.1033)" width="49.6" height="9.1"/>
	</g>
	<g>
		<path class="st0" d="M58.9,43.6"/>
	</g>
	<g>
		<path d="M65.3,164.1c-7.8,0-15.8-3.7-23-10.6c-8.3-8-14.8-19.7-18-32.8c-4.3-17-2.6-33.9,4.5-45.4c4.2-6.8,10.1-11.2,16.9-12.7
			c9.4-2.1,19.5,1.5,28.3,10c8.3,8,14.8,19.7,18,32.8v0c4.3,17,2.6,33.9-4.5,45.4c-4.2,6.8-10.1,11.2-16.9,12.7
			C68.9,163.9,67.1,164.1,65.3,164.1z M50.8,71.1c-1.1,0-2.2,0.1-3.3,0.4c-5.6,1.2-9.1,5.4-11.1,8.6c-5.7,9.2-7,23.9-3.4,38.4
			c5.7,22.6,22,39.2,35.6,36.2c5.6-1.2,9.1-5.4,11.1-8.6c5.7-9.2,7-23.9,3.4-38.4v0C78,86.8,63.7,71.1,50.8,71.1z"/>
	</g>
	<g>
		<path d="M62,141.4c-9.2,0-18.3-9.1-21.5-22.1c-2.1-8.5-1.2-17.2,2.4-23c2.3-3.7,5.6-6.2,9.4-7C62.4,87,73.1,96.6,76.8,111v0
			c2.1,8.5,1.2,17.2-2.4,23c-2.3,3.7-5.6,6.2-9.4,7C64,141.3,63,141.4,62,141.4z M55.2,98c-0.3,0-0.7,0-1,0.1
			c-1.4,0.3-2.7,1.3-3.7,2.9c-2.3,3.8-2.8,9.9-1.3,16.1c2.5,10.1,9.3,16.1,13.8,15.1c1.4-0.3,2.7-1.3,3.7-2.9
			c2.3-3.8,2.8-9.9,1.3-16.1v0C65.6,103.8,59.6,98,55.2,98z"/>
	</g>
	<g>
		<rect x="28.1" y="144.1" transform="matrix(0.4234 -0.9059 0.9059 0.4234 -108.3311 126.9608)" width="34.9" height="9.1"/>
	</g>
</g>
</svg>
